# xmcd
#
# Track frame offsets:
#	182
#	15250
#	34700
#	64242
#	87710
#
# Disc length: 1400 seconds
# Revision: 0
# Processed by: cddbd v1.5.2PL0 Copyright (c) Steve Scherf et al.
# Submitted via: dBpowerAMP V12.0
#
DISCID=37057605
DTITLE=Louie Louie - The Thought Of It
DYEAR=1992
DGENRE=New Jack Swing
TTITLE0=The Thought Of It [Single Version]
TTITLE1=The Thought Of It [Louie's Favorite Roger S. Edit]
TTITLE2=The Thought Of It [Backstabbers Club Mix]
TTITLE3=The Thought Of It [The Other Man Mix]
TTITLE4=The Thought Of It [Extended Intro. Album Mix]
EXTD=
EXTT0=
EXTT1=
EXTT2=
EXTT3=
EXTT4=
PLAYORDER=
